<?xml version="1.0" encoding="UTF-8"?><svg xmlns="http://www.w3.org/2000/svg" viewBox="0 0 725 936.09"><defs><style>.d{fill:#db6aad;}.e{fill:#16d3c1;}.f{fill:#f4e9d7;}</style></defs><g id="a"/><g id="b"><g><path class="d" d="M395.15,157.67l4.32,12.9-18.48-.85-7.64,21.8-1.99,8.53,10.46,12.68,3.95,2.93-17.9,14.5s-30.3,11.89-38.48,39.86c-8.18,27.97-3.09,61.6-1.12,73.06,1.96,11.45,.49,13.05-1.79,13.9-2.27,.85-6.76,4.09-3.5,9.35,3.27,5.26-.37,10.77-.37,10.77,0,0-9.78,5.74-17.14,14.47s-4.8,15.55,1.57,21.46c6.37,5.91,12.51,5.68,12.51,5.68,0,0-5.91,6.37-1.08,12.34,4.83,5.97,7.14,5.88,7.14,5.88,0,0,5.98,57.42-17.69,102.88-23.67,45.46-64,97.68-64,97.68,0,0,8.45,20.44,4.38,35.19-4.06,14.75-33.62,67.35-67.78,78.61,0,0-9.92,1.91-9.84,4.21,.09,2.3,1.45,18.39-1.53,20.81-2.98,2.42-7.3,10.26-7.3,10.26l.37,9.98s64.53,19.89,134.12,31.13c69.59,11.24,164.25,14.64,166.52,13.79,2.27-.85,3.35-13.19,3.35-13.19,0,0-5.69-8.24-6.54-10.52-.85-2.27,.99-14.64,.99-14.64,0,0-7.96-7.39-16.97-22.42-9.01-15.04-25.76-52.07-25.26-79.76,.51-27.69-3.17-85.19-2.57-89.83,.6-4.63-7.18-110.41,14.75-161.18,0,0,20.3,8.47,23.05-.09,2.76-8.56,2.41-17.77,2.41-17.77,0,0,16.83-2.16,18.79-11.46,1.96-9.3-3.04-19.87-3.04-19.87l-.54-14.58-1.28-13.79s41.01-54.56,41.12-72.24c.11-17.68,2.27-42.35-35.06-54.03l11.43-2.73-4.27-11.37,11.6,1.87,8.3-24.9-7.62-18.93-13.76-18.7s-39.29-23.13-86.59-13.69Z"/><path class="e" d="M296.75,53.73c.11,3.07,17.36,115.41,17.36,115.41,0,0,6.67-68.65,6.58-70.95-.09-2.3-23.94-44.45-23.94-44.45Z"/><polygon class="f" points="478.49 1.62 450.5 54.93 455.43 104.7 483.62 56.77 478.49 1.62"/><polygon class="f" points="619.56 74.77 573.74 124.12 545.78 178.19 596.34 132.5 619.56 74.77"/><path class="e" d="M683.33,177.69s-71.82,73.38-117.09,137.32c-45.27,63.94-63.79,123.81-63.79,123.81,0,0,54.36-88.1,99.72-128.99,45.36-40.88,115.45-98.83,115.45-98.83l-39.2-.08,4.91-33.23Z"/><path class="e" d="M486.68,490.12s38.16-69.05,98.73-114.35l-7.07,16.4,22.26-.83s-99.28,79.01-113.91,98.77Z"/><path class="f" d="M690.08,379.56s-114.88,93.43-163.73,185.17c-48.85,91.74-74.3,171.85-74.3,171.85,0,0,69.14-145.52,121.51-204.35,52.38-58.82,149.38-136.98,149.38-136.98l-33.74,2.02,.88-17.71Z"/><path class="e" d="M601.08,569.64s-63.86,60.02-81.88,92.2l59-46,22.88-46.2Z"/><path class="e" d="M613.27,711.36s-53.83,19.68-82.11,44.56c-28.28,24.88-48.77,52.54-48.77,52.54l75.32-41.23,55.56-55.87Z"/><path class="e" d="M261.79,931.95s87.21-155.42,136.58-212.59c49.37-57.17,95.12-108.06,95.12-108.06l-16.12,.6,14.94-52.82s-81.08,92.94-127.75,160.77c-46.66,67.83-89.74,170.12-102.78,212.1Z"/><path class="e" d="M204.79,535.96s13.93,23.31,14.61,20.98c.68-2.33,4.65-40.14,5.51-37.86,.85,2.28,10.58,36.5,9.91,80.33-.68,43.83,5.85,115.83-10.26,178.69-16.11,62.85-46.2,142.36-46.2,142.36,0,0,29.12-105.61,32.21-167.21,3.09-61.6-5.78-217.29-5.78-217.29Z"/><path class="e" d="M219.02,154.23c-.65,3.1,16.3,87.01,17.91,150.74,1.6,63.73,14.73,210.04,14.73,210.04,0,0,24.94-93.92,23.85-185.34-1.1-91.42-22.4-189-22.4-189l-2.35,40.05-31.73-26.49Z"/><path class="e" d="M163.18,223.17l-3.69,24.73-10.26-7.3s21.52,41.47,28.61,66.57c7.08,25.1,19.51,69.98,19.4,66.91-.11-3.07-14.66-104.75-34.05-150.91Z"/><path class="e" d="M110.12,305.08l10.21,47.27,29.11,38.88-9.13-38.86s-16.69-35.5-30.2-47.3Z"/><path class="f" d="M17.99,286.98c2.3-.09,76.65,77.08,112.02,160.3,35.38,83.22,45.37,165.86,44.69,168.19-.68,2.33,6.98,63.53-18.35,105.98,0,0,15.82-70.53-5.57-149.66-21.39-79.13-61.37-182.94-147.72-272.72l25.05,12.13-10.12-24.22Z"/><path class="e" d="M52.86,418.65l10.64,38.03,26.98,22.82s-12.29-41.04-37.62-60.85Z"/><path class="e" d="M44.04,532.72s32.96,59.49,43.94,106.73c10.98,47.24,26.48,112.76,27.36,115.8,.88,3.04-3.92-125.9-52.94-224.75l5.6,26.69-23.97-24.47Z"/><path class="e" d="M69.43,760.81l21.5,61.45s32.75,33.37,31.87,30.32-2.11-36.04-53.37-91.78Z"/></g></g><g id="c"><g><g><g><g><path class="f" d="M392.46,202.35c-6.41-2.54-14.01-1.72-20.72-3-3.22-.61-2.9,4.61,.43,4.45,6.62-.32,13.95,1.65,20.42-.05,.72-.19,.39-1.2-.13-1.4Z"/><path class="f" d="M378.22,175.82c-2.25,7.04-4.4,14.41-5.9,21.65-.19,.9,1.1,1.55,1.51,.62,2.96-6.71,5.47-13.91,7.71-20.9,.62-1.95-2.65-3.43-3.31-1.37Z"/><path class="f" d="M492.23,185.8c-2.92-1.59-6.22-2.19-9.43-2.99-2.82-.7-5.71-1.44-8.6-1.94,.96-1.09,1.8-2.38,2.65-3.45,.74-.92,1.43-1.84,2.05-2.8,2.03,.14,2.52-3.04,.34-4.07-12.84-6.02-26.71-10.09-40.7-12.16-13.48-2-28.76-3.12-42.12,.19-.52,.13-.73,.57-.7,1-.23,.3-.34,.7-.25,1.2,.37,1.95,1.41,3.86,2.14,5.72,.71,1.81,1.54,3.54,2.37,5.29-3.25-.37-6.61-.31-9.87-.41-3.07-.09-6.18-.33-9.21,.17-.55,.09-.51,.85-.02,1.01,6,1.87,13.52,2.59,19.77,2.69,2.1,.03,2.2-2.45,.67-3.2-.64-3.76-1.12-8.02-2.59-11.55,13.09,.12,25.87-.38,38.93,1.75,13.4,2.18,26.22,6.15,38.71,11.45-.62,.53-1.24,1.08-1.85,1.67-1.52,1.46-3.63,2.94-4.62,4.82-.82,1.55,.97,3.08,2.4,2.32,2.99,1.34,6.16,2.39,9.26,3.44,3.16,1.07,6.44,2.49,9.78,2.67,1.55,.08,2.37-2,.86-2.82Z"/><path class="f" d="M494.94,188.05c.07-.73-1.13-1.29-1.53-.6-2.16,3.73-3.37,7.98-4.79,12.05-1.3,3.73-3,7.6-3.96,11.5-5.44-.99-11.29-2.29-16.54-1.79-.8,.08-.53,1.03-.02,1.29,5,2.51,11.16,3.54,16.82,4.75,.59,.58,1.4,.87,2.01,.45,.42,.1,.84,.19,1.25,.29,2.68,.67,2.89-3.31,.63-4.23,1.17-3.29,1.92-6.8,2.86-10.11,1.27-4.46,2.83-8.97,3.27-13.6Z"/><path class="f" d="M328.71,331.61c-1.23-7.68-1.92-15.42-2.07-23.19-.28-14.43,1.04-29.01,3.88-43.17,.13-.63-1.03-1.06-1.24-.38-4.31,14.53-6.45,29.37-6.15,44.55,.14,7.24,.73,14.47,1.8,21.63,1.08,7.26,2.28,15.14,5.05,21.97,.68,1.68,3.59,1.38,3.23-.65-1.21-6.97-3.38-13.75-4.51-20.76Z"/><path class="f" d="M459.11,373.86c-15.2-13.66-36.74-21.71-56.65-24.93-20.21-3.27-42.04-1.82-61.13,5.91-.78,.32-.15,1.4,.56,1.18,19.77-5.96,39.96-7.78,60.37-4.12,9.87,1.78,19.5,4.74,28.64,8.86,9.47,4.27,17.6,9.99,25.99,16,2.17,1.56,4.17-1.17,2.22-2.91Z"/><path class="f" d="M475.52,227.88c-1.92-5.64-4.48-12.06-7.7-17.05-.29-.45-1.16-.47-1.03,.24,.97,5.21,3.26,11.02,5.52,16-1.56,.5-3.03,1.32-4.49,2.06-1.95,.98-4.43,1.8-6.01,3.33-1.57,1.52,.26,3.93,2.19,3.31,2.11-.68,3.98-2.41,5.78-3.68,1.3-.92,2.73-1.81,3.9-2.94,.93,.39,2.24-.06,1.83-1.27Z"/><path class="f" d="M484.89,241.47c-.92-2.39-2.56-4.58-3.92-6.74-1.25-2-2.42-4.09-3.99-5.86-.48-.54-1.77-.37-1.46,.56,.77,2.37,2.05,4.51,3.22,6.7,1.19,2.24,2.26,4.64,3.85,6.62,1.02,1.26,2.9,.28,2.31-1.28Z"/><path class="f" d="M495.42,228.98c-1.98-5.46-3.57-11.69-6.6-16.64-.29-.47-1.4-.71-1.35,.13,.38,5.79,2.79,11.8,4.38,17.34,.72,2.5,4.57,1.93,3.57-.83Z"/><path class="f" d="M493.7,232.37c-5.61-2.37-12.22-4.88-18.24-5.84-.92-.15-1.29,1.1-.52,1.58,5.23,3.26,11.82,5.77,17.64,7.71,2.47,.82,3.42-2.48,1.12-3.45Z"/><path class="f" d="M501.42,207.22c-1.83-6.5-3.85-13.05-6.41-19.25-.23-.55-1.14-.41-1.03,.24,1.26,7.15,3.33,14.29,5.47,21.24-1.27,3.97-1.71,8.38-2.41,12.46-.71,4.16-1.59,8.35-1.82,12.57-.05,.97,1.47,1.52,1.84,.51,1.61-4.33,2.51-8.98,3.56-13.47,.96-4.09,2.27-8.27,2.46-12.48,.05-.98-.82-1.71-1.68-1.81Z"/><path class="f" d="M486.05,183.26c-1.6-3.52-3.46-7.11-5.54-10.36-.38-.59-1.74-.64-1.43,.34,1.18,3.72,2.8,7.47,4.52,10.97,.76,1.54,3.24,.79,2.46-.94Z"/><path class="f" d="M385.78,211.64c-4.9-3.67-10.25-7.37-15.71-10.12-.77-.39-1.57,.68-.91,1.29,4.48,4.18,9.77,7.94,14.89,11.28,1.79,1.17,3.47-1.14,1.73-2.44Z"/><path class="f" d="M503.12,267.56c-.54-.48-1.56,.11-1.13,.81,6.9,11.22,8.96,23.98,2.38,35.94-.88,1.6,1.57,3.62,2.62,2,7.47-11.57,6.83-29.23-3.86-38.75Z"/><path class="f" d="M335.14,356.84c-1.43,.82-3.03,1.4-4.51,2.15-.72,.37-.16,1.28,.53,1.12,.39-.09,.78-.19,1.17-.29,.25,.89,1.51,1.64,2.35,1.02,.82-.61,1.55-1.53,2.17-2.34,.81-1.05-.73-2.24-1.72-1.67Z"/><path class="f" d="M328.23,429.84c-.21,1.3-.39,2.61-.58,3.91-4.18,.24-8.81-2.07-9.2-6.68-.36-4.2,2.74-7.36,6.55-8.4,1.69-.46,.57-3.06-.94-2.83-5.75,.88-9.9,6.85-8.28,12.55,1.39,4.89,6.76,8.18,11.65,6.97-1.62,11.85-2.53,23.81-4.59,35.63-2.49,14.32-5.66,28.52-9.46,42.55-7.3,26.94-16.95,53.4-28.62,78.76-.26,.57,.72,1.03,1.01,.44,12.62-25.61,22.81-52.15,30.46-79.68,3.67-13.18,6.76-26.53,9.28-39.98,2.61-13.9,5.59-28.53,5.93-42.7,.05-1.87-2.88-2.64-3.21-.57Z"/><path class="f" d="M332.61,377.72c-14.13,2.84-34.91,9.85-33.43,28.11,.87,10.74,14.96,18.45,22.93,9.51,.52-.58-.54-1.36-1.07-.82-3.89,4-10.48,2.93-14.47-.38-4.67-3.88-4.8-10.41-2.55-15.67,5.11-11.95,18.73-14.87,30.1-17.59,2.19-.52,.41-3.55-1.5-3.17Z"/><path class="f" d="M466.92,397.55c-.75-.38-1.17,.62-.6,1.1,6.59,5.52,9.84,15.34,4.56,22.95-5.18,7.47-13.55,7.39-21.32,5.08-1.61-.48-2.1,1.79-.96,2.62,1.18,.86,2.48,1.48,3.83,1.91,.03,.11,.08,.21,.15,.33,2.61,3.83,2.62,9.41-.68,12.86-3.2,3.35-8.55,3.68-12.34,1.17-1.83-1.21-3.68,1.11-1.87,2.45,4.9,3.62,12.15,3.4,16.47-1.12,3.93-4.11,4.08-10.65,.84-15.13,7.31,.93,15.62-3.24,19.06-9.41,4.65-8.34,1.5-20.42-7.15-24.8Z"/><path class="f" d="M420.32,642.67c-5.08-29.87-6.79-60.27-5.21-90.66,.91-17.58,3.02-35.17,6.39-52.63,1.62-8.4,3.49-16.78,5.65-25.12,2.3-8.89,5.59-17.68,7.68-26.59,.59-2.51-4.02-4.08-5.18-1.39-3.69,8.53-5.73,17.71-7.98,26.5-2.28,8.9-4.25,17.85-5.87,26.83-3.12,17.3-5.09,34.69-5.84,52.09-1.37,31.34,1.64,62.49,8.64,92.96,.58-.66,1.15-1.33,1.74-1.99Z"/><path class="f" d="M274.17,608.46c-6.54,7.57-13.3,14.97-19.87,22.52-1.2,1.38,1.41,3.42,2.55,1.95,6.09-7.91,12-15.97,18.12-23.86,.36-.46-.42-1.04-.8-.61Z"/><path class="f" d="M408.18,655.91c-8.12-2.66-16.41-4.91-24.53-7-14.78-3.81-29.8-6.69-44.94-8.56-14.71-1.82-29.53-2.75-44.35-2.77-14.54-.03-29.69,.24-43.98,3.12-.65,.13-.17,1.04,.34,1.02,14.76-.35,29.4-1.7,44.18-1.43,14.86,.27,29.71,1.46,44.43,3.55,14.29,2.03,28.47,4.84,42.43,8.51,7.94,2.09,15.67,4.63,23.37,7.29,1-1.27,2.01-2.51,3.06-3.74Z"/><path class="f" d="M460.68,798.58c-7.33-8.94-14.57-17.24-20.71-27.58-6.03-10.14-11.11-21.1-15.07-32.6-3.77-10.96-6.76-22.6-8.17-34.23-.39-3.22-.64-6.55-.65-9.86-1.13,1.52-2.28,3.03-3.44,4.53,.02,.26,.03,.53,.05,.79,.9,12.58,3.97,25.37,7.86,37.24,4.07,12.43,9.39,24.36,15.82,35.31,6.26,10.66,13.71,21.65,22.33,29.48,1.74,1.58,3.53-1.21,1.99-3.09Z"/><path class="f" d="M209.54,749.04c-10.58,.95-21.12,2.4-31.37,4.72-.87,.2-.27,1.49,.48,1.42,10.41-.98,20.77-2.13,31.16-3.03-.1-1.04-.19-2.07-.27-3.11Z"/><path class="f" d="M342.99,757.27c-33.97-7.3-68.79-10.65-103.47-9.81-3.73,.09-7.49,.22-11.25,.38,.04,1.01,.05,2.03,.03,3.06,1.63-.07,3.27-.15,4.91-.19,18.34-.49,36.72,.09,54.98,1.83,17.73,1.68,35.36,4.45,52.78,8.22,.67-1.17,1.34-2.34,2.03-3.5Z"/><path class="f" d="M452.9,796.58c-28.05-14.52-57.74-25.94-88.3-34.11-.67,1.18-1.34,2.35-2.03,3.52,10.93,2.93,21.76,6.23,32.43,10,19.38,6.84,38.23,15.07,56.49,24.49,2.69,1.39,3.92-2.6,1.41-3.89Z"/><path class="f" d="M230.75,709.42c.2,2.38,.2,4.76,.04,7.16,16.36-21.09,24.28-47.42,19.42-71.63-.56-2.8-5.72-2.8-5.36,.35,2.59,22.53-.93,44.49-14.1,64.13Z"/><path class="f" d="M209.62,731.95c-11.48,8.99-24.87,15.83-39.51,21.48-1.23,.48-.25,1.87,.87,1.62,14.15-3.14,27.1-9.32,38.29-17.54,.06-1.86,.16-3.71,.35-5.56Z"/><path class="f" d="M170.63,754.92c-.26-.53-1.14-.46-1.06,.21,1.3,10.67,.33,19.79-6.54,28.46-1.45,1.83,1.84,4.34,3.23,2.46,6.26-8.46,9.12-21.33,4.37-31.14Z"/><path class="f" d="M463.96,826.57c-2.13-4.2-3.64-8.37-3.84-13.12-.17-3.99,.79-7.69,1.44-11.58,.09-.57-.81-.99-1.16-.51-5.39,7.27-4.42,18.95-.25,26.54,1.23,2.24,5.13,1.27,3.81-1.32Z"/><path class="f" d="M206.21,794.06c.18-1.15,.34-2.31,.49-3.47-14.48-.2-28.96,.03-43.4,.96-1.51,.1-.86,2.15,.43,2.15,14.17,.01,28.31,.17,42.43,.56,.02-.07,.03-.14,.04-.2Z"/><path class="f" d="M318.13,799.7c-28.62-4.27-57.47-7.06-86.38-8.35-3.8-.17-7.6-.31-11.4-.43-.34,1.27-.67,2.53-1.02,3.79,21.55,.84,43.07,2.29,64.58,4.75,10.75,1.23,21.48,2.72,32.18,4.37,.66-1.38,1.35-2.76,2.05-4.13Z"/><path class="f" d="M466.72,836.25c-8.93-4.02-18.73-6.53-28.09-9.38-9.75-2.97-19.56-5.76-29.41-8.37-19.44-5.15-39.07-9.61-58.83-13.37-4.39-.83-8.79-1.62-13.19-2.38-1.06,1.33-2.13,2.66-3.21,3.99,22.49,3.93,44.83,8.73,66.92,14.44,10.68,2.76,21.3,5.73,31.86,8.91,11.02,3.32,21.9,7.7,33.07,10.4,2.79,.67,3.11-3.23,.88-4.23Z"/><path class="f" d="M203.65,808.36c-13.78-3.04-27.52-6.19-41.38-8.89-.91-.18-1.1,1.01-.3,1.27,13.49,4.32,27.4,7.76,41.34,10.93,.11-1.11,.21-2.21,.35-3.31Z"/><path class="f" d="M461.33,840.45c-39.46-2.04-78.69-4.2-117.9-8.73-7.72-.89-15.42-1.87-23.11-2.9-.69,1.31-1.37,2.62-2.07,3.93,25.48,3.51,51.08,6.3,76.76,8.36,22.11,1.77,44.41,3.4,66.64,3.68,2.99,.04,2.36-4.2-.31-4.33Z"/><path class="f" d="M305.95,826.83c-26.44-3.81-52.74-8.34-78.89-13.5-4.24-.84-8.46-1.74-12.68-2.64-.36,1.08-.74,2.15-1.11,3.22,1.86,.41,3.72,.82,5.57,1.23,19.28,4.24,38.7,7.96,58.21,11.3,9,1.54,18.02,2.97,27.06,4.31,.59-1.32,1.19-2.63,1.83-3.92Z"/><path class="f" d="M410.69,653.12c-21.54-8.36-44.31-14.11-66.92-17.68-29.87-4.71-61.17-5.76-91.06-.66-1.26,.21-.78,1.94,.37,1.85,30.31-2.12,60.35-2.06,90.42,2.75,22.08,3.54,43.26,9.56,63.97,17.35,1.04-1.24,2.11-2.45,3.21-3.62Z"/><path class="f" d="M455.88,426.37c-17.41-12.92-39.94-20.14-61.25-22.86-21.02-2.68-44.71-1.54-64.42,6.88-.75,.32-.14,1.28,.53,1.12,10.65-2.49,21.1-4.9,32.05-5.68,10.53-.75,21.16-.34,31.6,1.19,21.54,3.15,40.51,11.45,59.07,22.51,2.38,1.42,4.77-1.4,2.41-3.15Z"/><path class="f" d="M427.74,443.61c-14.18-7.76-30.87-12.2-46.78-14.56-7.77-1.15-15.65-1.75-23.51-1.73-7.79,.02-16.28,.14-23.76,2.54-.61,.2-.14,.92,.31,.94,7.75,.38,15.56-.47,23.32-.22,8.1,.26,16.15,1.07,24.13,2.44,15.79,2.71,30.22,8.17,44.92,14.31,2.72,1.13,3.68-2.44,1.35-3.72Z"/><path class="f" d="M331.32,369.71c-5.15,.57-10.38,5.15-10.07,10.73,.06,1.17,1.91,2.2,2.45,.75,.78-2.12,1.48-3.88,3.2-5.44,1.58-1.42,3.41-2.4,5.48-2.86,1.94-.43,.62-3.36-1.06-3.18Z"/><path class="f" d="M473.63,394.58c-.53-2.95-3.62-5.01-6.53-4.55-2.1,.34-1.24,3.43,.61,3.08,1.41-.27,2.98,.33,3.22,1.91,.24,1.57-.93,3.04-2.31,3.64-.9,.39-.33,1.6,.52,1.56,2.8-.14,4.98-2.83,4.48-5.64Z"/><path class="f" d="M459.08,395.96c-6.18-6.48-16.19-10.94-24.28-14.55-9.1-4.06-18.65-7.16-28.42-9.16-9.49-1.94-19.18-2.92-28.86-2.9-9.66,.02-20.01,.56-29.21,3.73-.82,.28-.27,1.43,.46,1.37,9.35-.78,18.49-2.25,27.91-2.15,9.68,.1,19.34,1.26,28.77,3.41,9.16,2.08,18.11,5.04,26.68,8.9,4.36,1.96,8.62,4.15,12.75,6.55,4.09,2.38,7.85,5.54,12.11,7.56,1.72,.81,3.48-1.3,2.1-2.75Z"/><path class="f" d="M392.87,244.07c-25.02-1.19-49.79,9.23-66.38,27.99-.42,.48,.45,1.13,.88,.67,17.05-17.98,41.06-27.87,65.82-27.06,1.1,.04,.64-1.55-.32-1.6Z"/><path class="f" d="M502.3,291.44c-6.11-9.64-16.28-16.15-25.84-21.94-20.47-12.4-42.58-19.84-66.05-23.97-.78-.14-.78,.98-.07,1.11,20.28,3.73,40.11,11.72,57.9,22.03,14.88,8.63,43.23,25.92,31.47,46.96-1.28,2.29,2.21,5.16,3.74,2.85,5.51-8.3,4.01-18.91-1.14-27.04Z"/><path class="f" d="M340.08,419.07c-9.35-1.02-18.23,3.49-22.68,11.81-.24,.45,.59,.95,.87,.51,4.77-7.34,12.94-11.6,21.71-10.89,1.01,.08,1.03-1.34,.1-1.44Z"/><path class="f" d="M455.83,448.39c-12.61-10.95-29.72-18.71-45.53-23.62-15.9-4.94-32.61-7.26-49.25-7.26-.53,0-.31,.76,.15,.77,17.02,.22,33.68,3.41,49.67,9.25,7.42,2.71,14.69,5.88,21.68,9.57,7.58,4.01,14.31,9.02,21.47,13.66,1.8,1.17,3.45-.95,1.82-2.38Z"/><path class="f" d="M349.21,386.95c-12.39,2.04-24.33,6.23-35.42,12.12-3.85,2.05-9.94,4.55-10.67,9.51-.41,2.81,.71,4.93,3.53,5.06,.64,.03,.45-.9-.07-1-4.47-.82,.32-6.51,1.7-7.55,1.53-1.15,3.29-2.06,4.95-2.99,4.03-2.28,8.21-4.31,12.48-6.1,7.77-3.24,15.84-5.54,24.06-7.3,1.05-.22,.36-1.9-.58-1.75Z"/><path class="f" d="M467.1,414.61c-8.51-7.97-20.71-13.62-31.34-18.08-23.46-9.85-47.84-12.79-73.04-10.39-.56,.05-.33,.84,.16,.81,19.94-1.37,40.92,1.97,59.82,8.31,8.98,3.01,17.69,6.82,25.97,11.43,4.55,2.53,9.05,5.28,13.25,8.39,1.92,1.42,3.8,2.92,4.81,5.13,1.32,2.88,.44,6.69-3.17,7.29-2.07,.34-1.73,3.2,.24,3.47,3.78,.51,6.69-2.09,7.55-5.73,.96-4.09-1.35-7.9-4.24-10.61Z"/><path class="f" d="M511.15,280.16c-2.54-7.51-7.21-14.17-12.7-19.81-4.69-4.83-10.19-9.81-16.1-13.43,2.9-1.1,5.67-2.58,8.59-3.6,1.4-.49,1.35-1.99,.67-3.02-2.13-3.28-4.1-7.15-6.81-9.97-1.41-1.47-4.28-.64-3.28,1.67,1.34,3.07,3.59,5.95,5.64,8.73-2.49,1.56-5.16,2.9-7.52,4.65-.25-.13-.5-.27-.76-.4-1.24-.62-2.17,0-2.49,.92-1.75-1.09-3.52-2.15-5.32-3.16,.22-.58,.14-1.3-.45-2.02-11.67-14.14-29.21-23.7-47.27-25.77-11.09-1.27-23.11,.11-33.89,4.29-.04-.09-.07-.19-.13-.28-.84-1.23-1.81-2.38-2.74-3.54-.73-.91-1.26-1.95-2.07-2.71,3.66-1.8,7.36-4.33,10.47-6.86,1.38-1.12-.54-3.17-1.91-2.25-3.42,2.3-7.07,5.22-9.88,8.32-1.28-.31-2.14,1.12-1.69,2.33,.32,.85,.81,1.1,1.49,1.6,.61,.45,1.15,1.08,1.69,1.61,.9,.89,1.79,1.77,2.73,2.61-6.36,2.72-12.23,6.43-17.13,11.22-.12,.12-.17,.24-.17,.37-5.46,1.67-10.82,3.71-15.98,6.11-6.62,3.08-14.14,6.62-19.34,11.84-.51,.52,.08,1.45,.77,1.16,6.87-2.88,13.16-7.12,20.05-10.06,6.41-2.73,13.01-4.98,19.76-6.69,14.64-3.7,29.9-4.87,44.92-3.21,13.67,1.51,27.03,5.3,39.53,11.12,6.13,2.85,12.03,6.19,17.65,9.97,5.83,3.92,10.82,8.91,16.53,12.91,1.04,.73,2.17,.49,2.82-.19,3.99,4.4,7.43,9.37,9.68,14.88,1.24,3.05,2.06,6.23,2.46,9.44-.93-.47-2.04-.33-2.5,.92-5.38,14.85-9.67,29.74-16.45,44.09-1.35,2.85-2.77,5.64-4.24,8.39-.47,.8-.94,1.59-1.41,2.39-4.16,7.11-8.63,14.2-12.62,21.48-1.34,2.16-2.68,4.31-4.02,6.48-.08-.04-.16-.09-.24-.12-.53-.23-1.21,.28-.88,.86,.11,.19,.22,.37,.33,.56-.36,.59-.73,1.17-1.09,1.76-.17,.28-.11,.58,.06,.79-.01,.11,0,.22,.03,.32,.42,1.1,1.39,1.75,1.63,3,.17,.86,.09,1.57-.14,2.29-.27-.11-.55-.21-.85-.29-2.09-.56-2.22,2.35-.65,3.13,2.56,1.29,2.11,4.73,.08,6.22-2.03,1.48-4.95,1.1-7.09,.16-3.04-1.34-5.4-4.02-7.76-6.27-4.72-4.47-9.87-8.42-15.42-11.8-10.46-6.37-22.11-10.71-34.17-12.88-12-2.16-24.39-2.18-36.35,.17-6.36,1.25-12.58,3.13-18.53,5.7-7.12,3.07-17.21,8.88-22.68-.05-.3-.49-1.34-.55-1.16,.23,1.08,4.47,5.48,6.78,9.83,7.12,6.08,.48,11.73-3.02,17.19-5.15,12.17-4.73,25.37-6.67,38.4-6.04,13.08,.63,26.04,3.94,37.81,9.67,6.06,2.95,11.79,6.53,17.05,10.74,4.65,3.72,8.6,8.97,13.98,11.65,4.28,2.14,10.8,2.32,13.52-2.36,.19-.32,.34-.66,.47-.99,.02,.24,.03,.48,.03,.73-.02,2.55-1.24,4.51-2.39,6.69-.33,.62-.13,1.32,.32,1.87,.03,.09,.07,.17,.13,.26,4.32,6.04,6.33,13.85,2.87,20.83-3,6.04-9.29,9.45-15.83,9.65-.26-.5-.53-.99-.81-1.45-.46-.79-2.13-.86-1.83,.37,.08,.35,.18,.71,.27,1.08-2.58,.32-2.48,4.14,.26,4.46,.27,.03,.53,.04,.8,.06,.68,3.7,.66,7.5-2.37,10.01-5.37,4.44-11.7,.2-17.01-1.92-2.31-.92-4.05,2.07-1.92,3.51,5.99,4.04,15.22,7.27,21.65,2.29,4.53-3.52,4.49-8.94,2.88-13.89,7.45-.56,14.46-4.97,17.84-11.78,3.7-7.48,2.24-17.25-3.72-23.08,3.61-3.63,3.83-9.77,1.16-14,.95-3.92-.1-8.94-2.93-12.04,6.49-8.94,11.93-18.84,17.67-28.24,6.2-10.15,12.32-20.35,18.44-30.55,.47-.79,.32-1.63-.13-2.31,7.76-8.88,8.41-22.54,4.69-33.53Zm-49.96-42.43c-12.88-5.85-26.71-9.66-40.75-11.08-14.62-1.48-29.42-.34-43.69,3.17-.98,.24-1.97,.5-2.94,.77,15.14-8.97,31.53-14.42,49.41-11.99,15.38,2.09,29.06,9.29,39.99,20.1-.68-.32-1.34-.66-2.02-.97Zm47.83,59.36c-.54,5.17-2.2,10.2-5,14.67,1.93-4.84,3.64-9.73,5-14.67Z"/><path class="f" d="M399.77,172.41c-4.82-3.34-12.53-3.84-18.21-1.87-.99-.9-2.65-1.07-3.25,.46-1.98,5.04-3.56,10.3-5.14,15.48-1.44,4.72-3.11,9.54-3.62,14.47-.05,.46,.51,.9,.95,.83,.07,.29,.21,.59,.45,.89,4.3,5.46,8.44,11.92,13.94,16.31-5.71,1.21-12.92,6.21-14.72,11.44-22.3,1.86-39.6,21.53-45.78,41.98-8.08,26.73-1.7,55.28,6.34,81.23-3.93-.89-8.03,2.76-9.06,6.41-.87,3.06,.19,6.69,2.53,8.85-.76,1.09-1.3,2.38-1.91,3.54-.9,1.71-1.92,3.47-2.37,5.35-11.11,2.43-21.13,10.45-21.94,22.53-.64,9.59,6.89,20.12,16.93,19.65-2.18,7.9,4.59,16.28,12.87,17.17,3.02,.32,2.99-3.78,.28-4.26-7.33-1.31-10.39-7.1-10.1-13.91,.01-.08,.02-.15,.01-.23,.02-.41,.05-.82,.1-1.23,.09-.8-1.22-1.55-1.72-.76-.1,.15-.18,.31-.27,.47-9.44-1.62-15.51-9.69-12.79-19.43,2.52-9.02,10.84-14.07,19.58-15.69,2.82-.52,2.14-4.22-.1-4.66,.76-.86,1.44-1.8,2.11-2.71,1.07-1.47,2.63-3.03,3.12-4.79,.3-1.07-.73-2.45-1.82-2.51-1.16-1.97-1.67-4.2-.58-6.46,1.38-2.85,3.97-2.85,6.36-4.2,.52-.29,.66-.81,.59-1.34,.45-.07,.79-.42,.66-1.09-5.04-25.32-12.07-51.39-5.27-77.11,5.93-22.45,22.74-40.68,46.65-42.54,3.09-.24,1.76-4.4-.88-4.4-.18,0-.36,.01-.55,.01,1.78-1.45,3.42-3.15,5.37-4.37,3.12-1.94,6.53-2.52,9.79-4.04,1.83-.85,.68-3.19-1.06-3.18-.08,0-.16,.01-.24,.02-2.76-6.76-8.43-12.61-12.87-18.3-.61-.77-1.43-.98-2.15-.81,1.98-3.65,3.37-7.66,4.84-11.52,1.88-4.93,3.8-9.93,5.31-14.99,2.72-.21,5.4-.4,8.14-.04,2.93,.39,5.57,1.6,8.43,2.23,1.76,.39,2.41-1.96,1.07-2.89Z"/><path class="f" d="M487.8,183.08s-.02-.07-.04-.11c-.88-2.04-2.38-3.87-3.65-5.68-1.37-1.95-2.81-3.87-4.46-5.59-.37-.39-.91-.4-1.21-.15-11.61-7.04-26.32-10.85-39.51-13.07-13.61-2.29-28.82-3.08-42.32,.23-.46,.11-.58,.43-.52,.76-.8,.06-1.44,.61-1.23,1.78,.35,1.95,1.58,3.77,2.42,5.55,.87,1.82,1.77,3.42,2.87,5.09,.36,.55,1.25,.26,1.16-.4-.28-1.96-.7-3.72-1.28-5.64-.52-1.74-.8-3.74-1.74-5.29-.02-.04-.05-.07-.08-.11,13.68-.24,26.89-.51,40.47,1.92,6.83,1.22,13.56,2.95,20.14,5.18,6.54,2.21,12.6,5.39,18.99,7.9,.6,.24,1.16,.17,1.61-.05,1.35,3.26,3.13,6.65,5.23,9.18,.66,.8,1.7,.91,2.44,.56,3.7,3.32,6.89,6.65,9.26,11.3,2.48,4.86,2.88,9.82,3.45,15.08-2.05,5.59-3.57,11.37-5.71,16.92-2.53,6.58-7.46,1.7-11.18-.36-2.03-1.12-3.59-1.47-5.85-1-2.06,.42-.78,3.25,.7,3.52,.32,.06,.65,.14,.98,.25,.64,1.36,1.47,2.66,2.2,3.94,.84,1.47,1.71,2.94,2.59,4.4-4.02,1.44-7.99,3.56-11.84,5.21-2.58,1.11-.48,4.35,1.82,3.84,2.49-.55,5.01-.97,7.51-1.47,2.23-.44,3.55-1.03,5.52-2.04,.63-.33,.08-1.28-.45-1.35-.21-.03-.41-.03-.62-.06,.41-.2,.82-.39,1.21-.61,.84,.1,1.64-.33,1.86-1.08,1.57-1.1,.05-3.13-1.53-3.37-1.1-1.64-2.23-3.26-3.38-4.87-.08-.11-.16-.23-.24-.34,4.42,2.46,9.15,5.11,12.63,.12,2.15-3.08,2.71-7.59,3.75-11.14,.81-2.76,1.62-5.53,2.35-8.32,.35-.1,.64-.35,.76-.79,3.1-10.85-4.66-25.27-15.09-29.85Z"/><path class="f" d="M459.99,816.34c-33.68-16.36-69.09-29.01-105.46-37.53-.53,.8-1.06,1.61-1.6,2.41,16.44,3.9,32.66,8.61,48.52,14.16,19.61,6.87,38.76,14.98,57.27,24.43,2.39,1.22,3.54-2.36,1.26-3.47Z"/><path class="f" d="M332.54,774.23c-28.52-5.32-57.5-8.14-86.62-8.13-6.57,0-13.12,.17-19.66,.47-.11,.51-.22,1.01-.33,1.52,35.16-1.01,70.56,1.96,105.18,8.53,.48-.8,.95-1.59,1.43-2.38Z"/><path class="f" d="M207.77,767.73c-8.49,.7-16.97,1.59-25.43,2.67-.62,.08-.38,.98,.18,.91,8.33-1.02,16.7-1.78,25.09-2.35,.05-.41,.1-.82,.16-1.23Z"/></g><path class="f" d="M505.42,210.44c-.37-4.63-2.77-8.51-5.08-12.43-2.63-4.45-5.03-9.22-8.12-13.37-.22-.3-.5-.51-.8-.64-.05-.28-.16-.57-.35-.87-1.66-2.6-3.57-5.06-5.37-7.57-1.42-1.97-2.73-4.48-4.95-5.59-.18-.09-.41-.06-.58,.05-12.11-7.46-26.24-12.21-40.18-14.66-13-2.29-27.51-3.04-40.46,.46-2.71-.24-6.12,.79-7.05,3.68-1.24,3.83,2.56,6.38,3.96,9.49-4.81-.85-9.61-1.68-14.42-2.55-1.14-.2-1.85,.3-2.15,1.02-.08,.06-.16,.13-.22,.23-2.87,4.58-4.18,10.36-5.92,15.44-1.94,5.7-3.85,11.41-5.77,17.11-.33,.99,.15,1.82,.84,2.47,5.2,4.96,10.54,9.82,15.97,14.54-2.49,.92-4.8,2.41-7.09,3.7-3.18,1.79-6.5,3.5-9.42,5.71-.73,.56-.84,1.26-.59,1.88-21.3,4.03-37.16,22.17-43.17,42.72-3.55,12.15-4.2,24.93-3.13,37.49,.12,1.38,.26,2.75,.42,4.13-.62,12.54,.89,26.24,6.23,37.52-4.65,.14-8.71,4.54-9,9.13-.29,4.57,3.19,9.68,7.99,9.92,1.05,.05,1-1.33,.39-1.82-2.53-2.02-4.96-4.56-4.08-8.14,.83-3.35,3.65-4.31,6.54-5.28,.04-.02,.07-.04,.11-.05,1.29,2.03,4.59,1.26,3.64-1.37-.63-1.75-1.29-3.47-1.95-5.18-.85-5.12-2.25-10.24-3.16-15.29-1.18-6.48-2.26-12.99-2.9-19.55-1.22-12.57-1.01-25.38,2.26-37.65,5.85-21.96,23.04-41.88,46.99-43.06,2.9-.14,1.81-4.28-.74-4.28,1.98-1.29,3.89-2.7,5.8-4.06,2.23-1.57,4.66-3.06,6.54-5.06,2.12,1.24,4.02-1.71,2.06-3.57-5.22-4.93-10.6-9.75-16.05-14.44,1.6-5.32,3.22-10.64,4.8-15.97,1.35-4.54,3.26-9.31,3.96-14.06,.16,.06,.32,.1,.51,.13,5.72,.87,11.43,1.78,17.15,2.66,.97,.15,2.25-.46,2.21-1.61-.1-2.41-.89-4.15-2.33-6.08-1.08-1.44-3.08-3.16-2.81-5.18,.17-1.26,1.08-1.94,2.1-2.46,14.05-.54,27.7-1.24,41.67,1.31,14.25,2.59,27.09,7.99,39.78,14.8,.64,.35,1.24,.3,1.73,.04,.64,1.12,1.4,2.19,1.99,3.19,1.56,2.64,3.04,5.34,4.75,7.89,.25,.38,.56,.62,.88,.77,.03,.07,.04,.15,.08,.22,3.55,7.69,10.55,14.53,12.29,22.96,1.9,9.19-3.64,16.26-6.72,24.32-.3,.78,.82,1.39,1.36,.81,5.74-6.14,10.26-15.44,9.57-23.99Z"/><path class="f" d="M252.84,635.14c-3.14-.21-7.22,.58-8.51,3.91-1.08,2.8,.31,6.44,3.47,6.97,2.14,.36,2.49-2.52,.68-3.28-1.2-.51-.8-2.25-.19-3.11,1.11-1.58,3.36-2.24,4.99-3.15,.59-.33,.12-1.29-.45-1.33Z"/><path class="f" d="M326.08,432.73c-1.1,14.06-1.69,28.01-3.85,41.97-2.23,14.44-5.46,28.72-9.63,42.73-8.2,27.53-20.08,53.82-35.1,78.31-4.06,6.61-8.34,13.11-12.81,19.45-4.68,6.64-10.59,12.93-14.54,20.01-.43,.77,.52,1.91,1.32,1.28,5.3-4.17,9.52-10.19,13.66-15.47,4.48-5.73,8.73-11.64,12.72-17.71,7.96-12.1,15.01-24.79,21.23-37.87,12.47-26.24,21.4-54.14,26.51-82.73,2.87-16.06,5.21-32.87,4.66-49.22-.08-2.35-3.95-3.51-4.17-.75Z"/><path class="f" d="M419.31,643.83c1.03-1.17,2.07-2.32,3.11-3.47-3.39-20.27-6.28-40.54-6.98-61.23-.94-27.53,.87-55.19,5.78-82.3,2.88-15.9,6.84-31.56,11.79-46.94,.76-2.37-3.24-4.27-4.02-1.77-16.91,54.2-22.52,112-14.72,168.32,1.28,9.21,2.89,18.36,5.04,27.38Z"/><path class="f" d="M460.87,819.57c.53-2.79,.59-5.73,.85-8.52,.34-3.73,1.07-7.69,.04-11.34-.16-.55-1.09-1.14-1.5-.47-.19,.3-.35,.62-.5,.93-.05-.08-.09-.17-.15-.25-7.11-10.18-14.49-19.74-20.24-30.83-5.68-10.94-10.26-22.47-13.59-34.34-3.24-11.56-5.4-23.52-6.24-35.5-.22-3.1-.3-6.24-.16-9.37-1.4,1.92-2.81,3.82-4.24,5.72,.25,12.55,2.32,25.16,5.49,37.29,3.28,12.56,7.87,24.78,13.74,36.36,5.82,11.49,12.83,23.76,21.75,33.15,.78,.82,1.76,1.01,2.56,.8-.51,2.05-.73,4.22-1.06,6.27-.64,4.03-1.62,8.17-1.3,12.26,.12,1.47,2.19,2.23,3.28,1.44,2.15,4.81,3.37,9.44,3.18,15.27-.08,2.58,4.21,3.69,4.45,.8,.56-6.78-1.6-14.52-6.35-19.65Z"/><path class="f" d="M169.87,770.47c1.27-5.1,1.53-10.5,.64-14.82h0c12.42-4.47,24.81-11.47,35.79-18.49,1.05-.67,2.07-1.36,3.09-2.06,.13-2.08,.34-4.16,.63-6.22-2.76,2.08-5.63,4.05-8.59,5.9-10.76,6.69-22.78,11.7-33.05,19.13-.9-.12-1.75,.27-1.84,1.38-.04,.03-.09,.06-.13,.1-.47,.36-.29,.93,.1,1.22-.03,4.11,.1,8.02-.54,12.15-.18,1.19-.44,2.34-.73,3.46-6.92,4.87-9.53,16.6-5.09,23.49,.57,.88,1.97,.39,1.83-.64-.52-4.01-.78-7.68,.66-11.5,.21,.03,.43-.02,.61-.21,1.84-1.85,3.37-4.26,4.58-6.95,.95-.84,1.97-1.66,3.04-2.55,1.37-1.14,.43-2.98-.99-3.38Z"/><path class="f" d="M321.68,438.62c1.17,57.85-16.95,115.53-50.43,162.69-9.44,13.3-20.18,25.3-31.36,37.13-.52,.55-.36,1.68,.14,2.2,.75,.79,1.56,1.48,2.39,2.15-.67,.3-1.1,.95-.87,1.99,4.7,21.24,.56,43.94-11.06,62.27,.37,2.6,.48,5.21,.38,7.83,.77-1.03,1.53-2.06,2.25-3.14,12.98-19.38,17.82-43.67,12.93-66.48,.45-.18,.72-.78,.35-1.32-.9-1.32-1.63-2.66-2.49-3.94,20.93-19.08,37.77-43.25,50.82-68.24,13.49-25.83,22.81-53.75,27.61-82.49,2.75-16.49,4-33.17,3.68-49.88-.05-2.53-4.41-3.57-4.35-.78Z"/></g><path class="f" d="M386.83,270.87c-3.32,12.3-5.97,24.73-7.73,37.35-1.71,12.3-3.79,25.72-2.15,38.1,.13,.95,1.65,1.13,1.8,.1,1.75-11.82,1.16-24.05,2.57-35.97,1.56-13.09,4.08-26.01,7.35-38.77,.28-1.1-1.53-1.98-1.85-.81Z"/><path class="f" d="M393.14,254.14c-1.15,.04-.69,1.7,.33,1.67,1.15-.04,.69-1.7-.33-1.67Z"/><path class="f" d="M402.4,233.29c-.24,1.3-.45,2.58-.6,3.89-.14,1.23,1.99,2.08,2.41,.74,.4-1.24,.72-2.49,1.03-3.76,.45-1.86-2.47-2.93-2.85-.87Z"/><path class="f" d="M416.51,215.84c-1.41,.05-.85,2.1,.41,2.05,1.41-.05,.85-2.1-.41-2.05Z"/><path class="f" d="M416.01,220.31c-1.34,2.51-2.82,4.98-3.85,7.63-.53,1.36,1.62,2.33,2.31,1.02,1.32-2.51,2.21-5.25,3.21-7.91,.38-1-1.17-1.69-1.68-.74Z"/><path class="f" d="M435.39,161.17c-5.16,17.49-10.49,34.92-15.68,52.4-.17,.58,.78,1.05,.99,.43,5.69-17.27,11.24-34.58,16.96-51.84,.44-1.34-1.85-2.41-2.27-1Z"/><path class="f" d="M377.31,348.67c.49-.56-.43-1.31-.98-.96-3.76,2.44-4.62,7.48-3.17,11.48,.12,.32,.34,.5,.6,.59-.48,.78-.92,1.58-1.33,2.41-.45,.93,1.16,1.67,1.66,.73,.88-1.65,1.55-3.35,2.14-5.12,.15-.44-.52-.91-.83-.49-.2,.27-.37,.55-.56,.83-1.14-3.47,.15-6.77,2.47-9.46Z"/><path class="f" d="M370.78,370.7c-7.7,1.54-14.08,8.24-14.3,16.29-.02,.86,1.39,1.23,1.48,.27,.67-7.55,5.56-13.94,13.08-15.76,.47-.11,.16-.88-.26-.79Z"/><path class="f" d="M356.65,393.73c-.2-.56-1.06-.41-1,.2,.33,3.46,1.02,7.07,1.89,10.44,.29,1.13,2.21,1.19,1.96-.14-.68-3.5-1.64-7.14-2.84-10.5Z"/><path class="f" d="M357.83,407.4c-.26-.73-.52-1.47-.78-2.2-.2-.57-1.24-.45-1.08,.22,.39,1.7,.77,3.39,1.15,5.09-4.8,5.23-6.03,13.57-1.31,19.36,.78,.95,2.71,.27,1.97-1-3.26-5.58-3.86-12.27,.11-17.59,.45,.12,.94-.04,1.02-.65,.1-.77,.12-1.56,.16-2.34,.04-.69-.73-1.08-1.24-.88Z"/><path class="f" d="M356,431.96c-.05-.52-.92-.62-.99-.06-2,16.46-1.58,33.15-3.83,49.65-2.31,16.95-5.78,33.72-10.33,50.22-8.92,32.33-21.46,64.35-38.64,93.21-.5,.84,.88,1.85,1.34,1.02,16.69-30.33,30.6-61.52,39.45-95.08,4.25-16.13,7.51-32.55,9.75-49.08,2.19-16.19,4.81-33.53,3.24-49.87Z"/><path class="f" d="M297.19,640.48c-.06-.5-.98-.64-.99-.05-.13,32.72-4.64,62.61-18.8,92.46-.25,.52,.65,.94,.92,.41,14.2-27.74,22.52-61.54,18.86-92.81Z"/><path class="f" d="M272.52,737.42c-4.21,3.09-8.6,5.95-12.43,9.51-.95,.88,.36,2.47,1.39,1.71,4.21-3.11,7.83-6.91,11.65-10.48,.41-.39-.15-1.08-.61-.75Z"/><path class="f" d="M256.55,750.57c-1.68,4.06-3.44,8.2-4.59,12.45-.26,.95,1.2,1.71,1.62,.71,1.71-4.07,2.85-8.44,4.02-12.7,.17-.62-.78-1.11-1.05-.46Z"/><path class="f" d="M249,766.87c-3.78,7.34-6.29,15.3-9.46,22.91-.5,1.19,1.63,2.2,2.08,.91,2.72-7.81,6.15-15.43,8.24-23.44,.14-.52-.6-.89-.86-.38Z"/></g><g><path class="d" d="M107.4,443.46c-25.35-50.67-58.55-100.21-99.48-139.92,6.68,3.55,14.6,5.93,21.25,8.74,1.17,.49,2.98-.49,2.21-1.91-4.42-8.02-8.73-16.14-13.37-24.03-1.07-1.81-4.6-1.1-3.43,1.07,3.67,6.81,7.59,13.5,11.47,20.19-7.2-3.16-14.9-6.93-22.34-8.08-.76-.72-1.5-1.46-2.27-2.16-.69-.63-1.92,.27-1.22,1.04,41.03,45.26,77.04,92.67,104.14,147.72,26.89,54.63,43.89,112.72,53,172.83,.38,2.53,4.8,2.56,4.44-.25-7.68-60.79-27.02-120.52-54.39-175.24Z"/><path class="d" d="M22.26,289.69c-.61-.58-1.75,.27-1.1,.94,93.76,96.49,150.49,224.05,152.32,359.27,.03,2.42,4.29,3.33,4.25,.77-2.43-133.68-57.94-268.53-155.47-360.98Z"/><path class="d" d="M176.03,647.26c-1.05,23.12-6.54,45.78-16.77,66.43,5.38-29.67,5.99-60.6,1.98-90.42-.1-.75-1.34-.75-1.3,.07,1.71,31.68-.14,62.52-5.33,93.79-.19,1.17,.77,1.93,1.8,2.06-1.06,1.95-2.15,3.88-3.3,5.78-1.21,1.99,2.62,3.79,3.78,1.68,13.59-24.5,20.92-51.06,20.5-79.15-.01-.75-1.32-1.09-1.35-.25Z"/></g><path class="d" d="M723.67,393.45c1.1-.82-.1-2.96-1.71-2.66-10.35,1.96-20.64,4.51-30.87,7.04-.75,.19-.26,1.14,.38,1.04,9.89-1.44,19.84-2.89,29.65-4.8-94.89,62.29-173.76,153.04-228.25,252.06-15.29,27.79-28.79,56.61-39.97,86.3,32.94-107.21,90.57-206.32,168.04-287.5,21.26-22.28,44.09-42.66,67.72-62.34-.58,5.14-.64,10.56-.67,15.54,0,.68,1.12,.86,1.29,.18,1.6-6.23,3.33-13.23,3.71-19.65,.12-1.93-2.87-3.09-3.51-1.16-.4,0-.81,.08-1.16,.35-89.26,69.41-160.56,164.87-206.24,267.95-12.94,29.21-23.85,59.26-32.72,89.95-.29,1.01,1.01,1.63,1.8,1.21-.03,.08-.06,.16-.09,.24-.29,.79,.99,1.52,1.32,.71,43.26-106.36,108-202.31,193.39-279.45,24.79-22.39,51.24-42.21,78.4-61.59,1.44-1.03,.71-2.85-.54-3.43Z"/><g><path class="d" d="M254.92,141.14c-.32-1.26-2.49-1.31-2.17,.15,13.35,62.22,20.69,125.32,19.89,189.01-.39,30.95-2.59,61.87-6.57,92.57-4.08,31.44-11.38,61.93-17.62,92.94-.47,2.35,3.83,3.92,4.59,1.41,8.95-29.55,13.62-61.17,17.56-91.73,4.11-31.89,6.23-64.04,6.42-96.2,.37-63.21-6.56-126.85-22.1-188.15Z"/><path class="d" d="M252.92,142.43c-.06-.99-1.7-1.53-1.79-.32-.97,12.8-.46,25.66-1.17,38.46-9.28-8.77-18.62-17.56-28.3-25.85-1.27-1.09-3.01-.17-3.3,1.09,0-.02,0-.04-.01-.06-.16-.84-1.55-.85-1.41,.1,8.78,59.35,16.72,118.75,21.72,178.55,2.59,30.97,4.51,62,5.8,93.06,1.24,29.97,.91,59.99,2.11,89.94,.09,2.31,4.01,3.44,4.09,.73,1.84-59.81-3.1-120.68-8.32-180.23-5.31-60.57-12.64-121.15-23.76-180.95,.09,.15,.16,.3,.31,.45,10.24,10.03,21.05,19.61,31.76,29.13,1.01,.9,3.41,.51,3.3-1.17-.96-14.29-.09-28.64-1.02-42.94Z"/></g><g><path class="d" d="M714.35,209.8c-22.77,13.28-43.58,32.53-63.32,49.88-19.11,16.79-37.44,34.48-54.92,52.96-31.22,33-60.38,68.67-85.23,106.87,38.45-87.58,95.42-166.51,167.36-229.77,1.86-1.64-.86-4.76-2.6-3.21-75.96,67.81-135.95,152.39-173.64,247.05-1.08,1.77-2.17,3.53-3.23,5.3-.54,.9,.86,2.01,1.47,1.12,.54-.79,1.09-1.57,1.63-2.35,.59,.24,1.29,.15,1.58-.57,.57-1.42,1.17-2.83,1.75-4.24,28.11-40.54,58.02-79.43,92.06-115.28,18.39-19.37,37.72-37.83,57.88-55.35,19.88-17.28,42.05-31.91,61.8-49.2,1.89-1.65-.59-4.38-2.6-3.21Z"/><path class="d" d="M711.74,203.68c-16.01,2.33-32.19,5.24-47.93,8.97-1.04,.25-.32,1.76,.56,1.69,16.08-1.36,32.32-3.6,48.23-6.34,2.92-.5,1.79-4.7-.86-4.32Z"/><path class="d" d="M681.15,178.2c-1.53,9.68-3.52,19.8-3.74,29.61-.02,.95,1.58,1.72,1.94,.59,3.01-9.4,4.36-19.73,6.04-29.44,.42-2.45-3.82-3.47-4.25-.76Z"/></g><path class="d" d="M495.27,561.99c2.31-2.24,4.61-4.48,6.95-6.69,1.35-1.28-.69-3.64-1.96-2.43-.86,.82-1.71,1.64-2.56,2.46-.95-.73-2.39-.98-3.36-.03-.34,.34-.68,.68-1.02,1.02-.71,.03-1.37,.41-1.69,1.29-.08,.2-.15,.41-.22,.62-54.19,53.58-101.96,114.63-142.08,180.04-17.98,29.02-34.37,59.03-49.03,89.89-2.22,4.6-4.41,9.21-6.55,13.84-13.9,30.05-27.45,61.02-36.71,92.86-.29,.99,1.25,1.77,1.68,.74,.23-.55,.46-1.09,.68-1.64,.45,.49,1.28,.7,1.66,.09,17.52-28.89,33.23-58.82,51.13-87.52,17.6-28.23,36.11-55.89,55.53-82.9,39.27-54.6,82.41-105.82,128.15-155.08,.86-.93,.64-2.01-.05-2.81,.38-.2,.77-.39,1.14-.6,.64-.36-.11-1.2-.66-1.05-.7,.19-1.38,.42-2.07,.62-.89-.27-1.87-.17-2.61,.59-.08,.08-.16,.17-.24,.26-4.25,1.34-8.43,2.82-12.65,4.23,5.59-15.9,11.37-31.76,16.56-47.8Zm-132.42,200.06c-19.59,27.6-38.23,55.87-55.83,84.78-14.8,24.31-29.92,49.05-42.5,74.73,9.07-22.12,17.75-44.37,27.76-66.13,12.49-27.14,26.09-53.79,40.84-79.77,28.63-50.43,61.43-98.47,98.14-143.37,15.99-19.56,32.83-38.3,50.14-56.65,1.91-1.92,3.84-3.82,5.77-5.72-4.99,14.14-9.64,28.41-14.51,42.58-.77,2.23,1.9,3.8,3.72,2.84,3.52-1.84,7.1-3.5,10.66-5.2-45.02,47.39-86.38,98.64-124.19,151.9Z"/><path class="d" d="M228.04,520.6c-.24-1.17-2.14-1.2-1.98,.14,8.2,67.72,11.59,134.54,3.34,202.49-6.5,53.55-19.1,106.22-37.37,156.91,24.11-110.62,26.7-226.98,13.18-339.08,4.27,6.27,8.8,12.38,13.06,18.64,.9,1.32,3.13,.96,3.33-.68,1.51-12.48,4.15-25.4,4.23-37.98,.01-1.57-2.84-2.98-3.3-1.01-2.53,10.93-3.16,22.58-4.25,33.85-4.53-6.01-8.97-12.11-13.72-17.96-.27-2.2-.54-4.39-.83-6.59-.13-1.02-1.84-1.02-1.7,.12,.17,1.33,.32,2.66,.48,3.99-.53-.63-1.04-1.29-1.58-1.91-.56-.64-1.94-.2-1.4,.71,1.12,1.88,2.3,3.72,3.5,5.55,6.9,59.15,8.8,118.96,5.82,178.42-3.08,61.5-12.55,121.68-24.84,181.93-.12,.6,.18,1.12,.64,1.51-2.51,6.39-5.09,12.75-7.79,19.07-1.09,2.55,3.33,4.67,4.48,1.97,26.62-62.73,44.27-129.04,52.32-196.71,7.94-66.81,8.15-137.28-5.63-203.4Z"/><path class="d" d="M199.08,374.34c-.15-.6-.3-1.2-.45-1.81-2.01-25.56-5.73-50.94-11.26-75.98-5.32-24.09-11.53-49.51-21.94-72.04,.08-.57,.17-1.14,.25-1.7,.31-2.22-3.38-3.09-3.8-.68-1.48,8.32-2.8,16.74-3.86,25.14-2.87-3.18-5.73-6.41-9-9.14-.8-.67-1.65,.29-1.14,1.09,.82,1.27,1.72,2.49,2.65,3.69,19.16,39.03,35.03,80.61,43.61,123.36,.3,3.37,.58,6.75,.83,10.13,.17,2.39,4.15,2.38,3.96-.28-.02-.2-.03-.4-.05-.6,.23-.28,.34-.67,.21-1.18Zm-45.42-127.62c1.45,1.69,2.93,3.37,4.34,5.06,.93,1.11,2.62,.86,2.92-.59,1.54-7.6,2.83-15.31,3.98-23.01,6.35,23.5,14.18,46.45,19.23,70.37,3.49,16.51,6.17,33.17,8.16,49.92-9.83-35.08-22.04-69.05-38.62-101.76Z"/><path class="d" d="M599.8,388.36c-.54,.38-1.07,.76-1.61,1.14-.41-.88-1.43-1.63-2.51-1.39-6.06,1.39-12.31,3.13-18.29,5.19,4.27-5.6,8.27-11.95,11.66-18.02,.21-.38,.23-.78,.13-1.16,.41-.34,.82-.7,1.24-1.04,1.5-1.24-.55-3.63-2.05-2.53-42.92,31.57-79.14,75.15-104.77,121.65-.21,.25-.43,.5-.64,.76-.62,.75,.65,1.64,1.31,1,37.38-37.05,74.96-72.02,117.82-102.78,1.77-1.27-.6-4-2.28-2.82Zm-109.17,95.58c25.3-39.57,55.87-73.28,91.47-103.83-2.71,4.58-5.27,9.34-7.34,14.06-.01,.03,0,.05-.02,.08-.46,.17-.94,.32-1.4,.5-1.05,.4-.39,1.97,.61,1.83,6.68-.94,13.56-2.43,20.15-4.18-37.15,26.48-73.38,57.05-103.47,91.54Z"/><path class="d" d="M63.84,529.92c-.27-.98-.52-1.98-.8-2.96-.19-.66-.72-1.09-1.3-1.29-.08-.15-.15-.31-.23-.46-.36-.71-1.53-.41-1.18,.41,.01,.03,.02,.05,.03,.08-.48,.22-.79,.7-.63,1.5,1.57,8.32,3.76,16.61,5.9,24.84-6.45-5.92-12.68-12.11-19.07-18.09-.44-.9-.87-1.81-1.31-2.7-.34-.68-1.48-.38-1.12,.39,.13,.28,.26,.56,.39,.84-.59,.1-1.06,.81-.52,1.37,.73,.75,1.47,1.49,2.2,2.24,15.42,32.83,28.79,66.58,39.53,101.24,10.95,35.34,18.24,71.17,24.89,107.52,.26,1.43,2.61,1.44,2.39-.17-9.48-70.88-32.95-141.42-64.06-205.8,6.14,6.17,12.41,12.25,18.27,18.66,.95,1.04,3.27,.83,2.86-.99-1.24-5.53-2.44-11.12-3.74-16.68,28.41,69.02,46.53,140.79,49,215.88,.06,1.9,3.37,2.67,3.27,.59-3.5-77.59-20.51-156.33-54.79-226.39Z"/><path class="d" d="M625.63,70.57c-1.01,1.01-2.04,2.02-3.05,3.04-.55-.53-1.57-.65-1.99,.2-.57,1.15-1.13,2.31-1.69,3.46-15.3,15.21-30.69,30.44-45.29,46.29,.44-1.21-1.62-2.13-2.3-.88-9.65,17.89-18.71,36.12-27.94,54.23-.34,.66,.25,1.25,.89,1.35-.04,.04-.08,.08-.12,.12-.59,.61,.56,1.68,1.18,1.15,17.44-14.96,34.34-30.88,50.89-46.8,.2-.19,.3-.41,.36-.63,9.07-16.93,17.24-34.98,24.49-52.85,2.29-2.31,4.58-4.63,6.87-6.93,1.16-1.17-1.13-2.92-2.3-1.75Zm-29.67,59.89c-.47-.39-1.1-.53-1.63-.05-16.4,14.98-32.78,30.29-48.37,46.14,8.96-16.95,18.07-33.85,26.65-50.99,.27,.31,.73,.49,1.04,.2,14.15-13.02,27.78-26.7,41.34-40.39-6.96,14.73-13.49,29.92-19.03,45.08Z"/><path class="d" d="M139.62,350.37c.63-.34,.99-1.15,.41-2.01-9.19-13.42-18.55-26.97-28.62-39.76-.18-.23-.46-.31-.73-.29-.19-.68-.38-1.37-.57-2.05-.15-.52-1.06-.54-.91,.06,3.87,16,7.9,31.97,11.89,47.94,.24,.97,1.6,1.18,2.05,.59,7.73,11.84,16.35,23.68,25.38,34.51,.3,.36,.67,.49,1.02,.49,.05,.54,.12,1.07,.16,1.62,.15,2.2,3.57,2.67,3.33,.19-1.36-14.49-5.45-29-13.4-41.29Zm-16.67,2.32s-.08-.07-.12-.1c-3.73-13.7-7.46-27.4-11.27-41.08,8.06,12.8,16.85,25.25,25.65,37.54,5.86,12.12,10.31,24.09,11.97,37.3-7.99-11.6-17-23.08-26.23-33.66Z"/><path class="d" d="M600.14,565.91c-.44-.17-.96-.15-1.34,.24-8.82,9.14-17.38,18.6-25.72,28.17-.24,.27-.09,.58,.16,.75-23.57,19.11-42.92,44.31-58.36,70.24-.26,.24-.53,.48-.8,.73-.63,.59,.24,1.65,.92,1.14,.07-.05,.14-.11,.21-.16,.4,.24,.88,.26,1.17-.2,.27-.44,.55-.88,.83-1.32,20.64-15.57,40.2-32.78,60.06-49.31,.35-.29,.47-.66,.45-1.02,.03-.03,.08-.06,.1-.11,8.94-15.35,16.98-31.62,24.55-47.68,.61-1.29-1.3-2.32-2.25-1.46Zm-23.38,47.87c-.42-.2-.9-.23-1.32,.12-18.23,15.24-36.98,30.12-54.66,46.03,15.54-23.7,34.17-43.88,54.66-63.67,.64-.62-.08-1.59-.86-1.78,7.6-7.44,15.11-15.03,22.41-22.77-7.18,13.74-14.19,27.86-20.22,42.06Z"/><path class="d" d="M93.29,480.99c-3.75-11.44-8.69-23.05-13.92-33.89-.16-.34-.66-.43-.93-.26-5.23-11.16-15.34-21.47-25.64-27.77-.47-1.33-.94-2.66-1.42-3.99-.21-.6-1.35-.47-1.15,.23,.36,1.2,.72,2.4,1.07,3.6-.07,.24-.03,.52,.2,.71h0c3.98,13.41,8.11,26.83,12.72,40,.37,1.06,2.39,.82,2.02-.41-.07-.23-.15-.46-.22-.7,7.5,8.81,15.96,17.32,24.32,25.13,1,.94,2.47-.15,2.14-1.26,.6-.16,1.04-.63,.78-1.41Zm-28.36-26.02c-3.51-11.25-7.35-22.44-11.29-33.56,4.47,3.76,8.8,7.62,12.59,12.12,4.4,5.23,7.49,11.12,11.09,16.87,.5,.8,1.53,.95,2.08,.55,2.79,9.29,6.05,18.7,9.81,27.62-7.59-8.22-15.81-16.39-24.27-23.61Z"/><path class="d" d="M297.15,57.31c-.2-1.09-2.04-1.1-1.83,.13,3.99,23.18,7.43,46.55,12.15,69.59,.27,1.35,2.51,1.38,2.28-.16-3.52-23.27-8.35-46.41-12.61-69.56Z"/><path class="d" d="M320.22,95.63c-.06,.61-.13,1.22-.19,1.82-6.71-14.07-14.18-27.97-21.81-41.54-.38-.68-1.55-.41-1.18,.41,6.76,14.68,13.9,29.43,21.69,43.59,.22,.4,.59,.6,.97,.67-2.1,20.18-4.32,40.49-5.33,60.75-1.28-11.53-2.68-23.06-4.22-34.55-.11-.79-1.37-.78-1.3,.09,1.14,14.37,2.44,28.76,4.02,43.09,.16,1.48,2.63,1.48,2.46-.17-.1-.99-.23-1.98-.34-2.97,.66,.3,1.5,.14,1.61-.79,2.68-23.24,3.6-46.83,4.83-70.18,.04-.71-1.14-1-1.22-.22Z"/><path class="d" d="M483.93,55.49c-.97-17.42-1.83-34.96-3.75-52.3-.05-.45-.37-.78-.76-1,.23-.43,.46-.86,.69-1.29,.31-.58-.8-1.27-1.14-.67-.36,.61-.72,1.23-1.07,1.84-.35,.16-.6,.46-.57,.96h0c-10.24,17.61-20.73,35.15-30.19,53.17-.5,.95,1.28,2.05,1.85,1.09,.18-.31,.36-.62,.54-.93,.86,15.37,2.07,30.71,3.24,46.05,.08,1.04,1.88,1.77,2.5,.78,9.6-15.36,19.29-30.66,28.76-46.11,.33-.54,.22-1.14-.1-1.6Zm-2.37-.28c-8.94,14.21-17.69,28.54-26.49,42.83-1.4-14.45-2.79-28.9-4.51-43.32,0-.03-.04-.05-.05-.07,9.45-16.04,18.19-32.57,27.02-48.97,1.15,16.35,3.16,32.72,5.1,49-.41-.04-.81,.09-1.08,.53Z"/><path class="d" d="M608.45,710.13c-49.57,19.1-95.92,55.21-127.73,97.59-.47,.63,.58,1.43,1.08,.83,17.43-20.65,36.28-39.75,57.91-56.04,21.74-16.38,45.18-28.73,69.84-40.04,1.49-.68,.29-2.87-1.11-2.33Z"/><path class="d" d="M613.04,707.66c-18.61,18.76-37.78,37.29-55.54,56.89-.42-.21-.92-.27-1.37-.02-25.18,14.29-50.04,29.42-74.61,44.74-.69,.43,.19,1.39,.84,1.04,24.4-13.5,48.77-27.32,72.64-41.77,.23,.15,.51,.19,.72,0,.44-.4,.87-.82,1.32-1.22,.3-.18,.61-.36,.91-.55,.35-.21,.5-.49,.52-.79,19.61-18.09,38.12-37.61,56.88-56.56,1.17-1.18-1.14-2.95-2.32-1.77Z"/><path class="d" d="M90.3,820.14c-6.37-22.26-14.03-44.24-21.26-66.24-.26-.8-1.72-.84-1.43,.1,6.64,22.21,12.94,44.65,20.44,66.59,.4,1.18,2.64,.92,2.25-.45Z"/><path class="d" d="M124.51,854.33c-1.21-1.17-2.42-2.35-3.63-3.52-2.41-33.2-23.25-71.15-49.06-90.89-.55-.42-1.35,.24-.83,.8,12.4,13.49,23.56,26.67,32.16,43.01,7.18,13.63,10.27,27.97,13.14,42.68-7.77-7.38-15.78-14.64-24.07-21.23-.6-.48-1.49,.27-.92,.88,8.08,8.75,16.98,17.08,25.91,25.1,.27,1.38,.54,2.77,.81,4.16,.29,1.49,3.13,2.06,3.09,.17,0-.29-.03-.58-.03-.87,.54,.48,1.09,.97,1.63,1.45,1.15,1.02,2.97-.6,1.81-1.74Z"/></g></g></svg>